<svg id="Layer_1" data-name="Layer 1" xmlns="http://www.w3.org/2000/svg" viewBox="0 0 243.45 243.46">
  <defs>
    <linearGradient id="linear-gradientexpressvg-logo-pink" x1="38.78" y1="50.33" x2="241.63" y2="50.33" gradientUnits="userSpaceOnUse">
      <stop offset="0" stop-color="#5e2143" />
      <stop offset="0.8" stop-color="#fa70bd" />
    </linearGradient>
    <linearGradient
      id="linear-gradientexpressvg-logo-pink-2"
      x1="38.07"
      y1="194.14"
      x2="211.93"
      y2="194.14"
      gradientUnits="userSpaceOnUse"
    >
      <stop offset="0" stop-color="#5e2143" />
      <stop offset="1" stop-color="#fa70bd" />
    </linearGradient>
  </defs>
  <g>
    <path
      d="M243.45,121.71a121.68,121.68,0,0,0-1.83-21h0l-.15-.74c-.07-.44-.15-.87-.23-1.31h0c-.05-.22-.11-.43-.14-.65l-.21-1.09h0a121.69,121.69,0,0,0-191-73.39c-.45.45-.87.89-1.27,1.34.4-.45.81-.9,1.24-1.33a120.33,120.33,0,0,0-9.83,8,121.65,121.65,0,0,0,9.74,188.31l0,0a121.64,121.64,0,0,0,162.15-16.37l-34.2-31.07a75.56,75.56,0,0,1-127.89-27.6H243.45ZM71.07,65.76A75.48,75.48,0,0,1,193.61,98.61H49.87A75.46,75.46,0,0,1,71.07,65.76Z"
      style="fill: #fa70bd"
    />
    <path
      d="M241.63,100.67H194.3l-.68-2a75.5,75.5,0,0,0-143.75,0c-.09-.19-.17-.41-.25-.6-.6-1.47-1.17-2.91-1.72-4.36-.16-.43-.32-.87-.49-1.31C36.73,64,34.74,40.25,48.48,25c.43-.49.9-1,1.39-1.47a121.69,121.69,0,0,1,191,73.39h0l.21,1.09c0,.22.09.43.14.65h0Z"
      style="fill: url(#linear-gradientexpressvg-logo-pink)"
    />
    <path
      d="M211.93,203.49A121.64,121.64,0,0,1,49.78,219.86c-15.86-14.82-15-39.73-1-72.54a9.09,9.09,0,0,1,.38-.93c.16-.4.35-.84.54-1.25a1.56,1.56,0,0,1,.14-.33,75.55,75.55,0,0,0,127.89,27.61Z"
      style="fill: url(#linear-gradientexpressvg-logo-pink-2)"
    />
  </g>
</svg>
