<svg id="bc08f6ed-44d7-425d-9cf5-5cf97992b8aa" data-name="Layer 1" xmlns="http://www.w3.org/2000/svg" viewBox="0 0 182.11 182.11"><defs><style>.ba424138-5f02-4f01-a1f9-78ab5a21e203,.bb31ba05-5292-4133-aed6-0f6e9ea4a9ba{fill:none;stroke:#718096;stroke-miterlimit:10;}.bb31ba05-5292-4133-aed6-0f6e9ea4a9ba{stroke-width:2px;}.ba424138-5f02-4f01-a1f9-78ab5a21e203{stroke-width:1px;}.fdcbc8fe-68db-457e-b341-0f0249f318b0{fill:#cecef2;}.e819ce0f-3b2d-4c35-bef6-b88271b33a6e{fill:#b3b4d4;}.ac8318ee-b3d9-4ad8-b946-9f672d5b974c{fill:#3d3f7a;}.e8f20f75-0817-4435-9d10-c475d7516df2{fill:#494c99;}</style></defs><title>personal-logo</title><circle class="bb31ba05-5292-4133-aed6-0f6e9ea4a9ba" cx="91.06" cy="91.06" r="90.31"/><circle class="ba424138-5f02-4f01-a1f9-78ab5a21e203" cx="91.06" cy="91.06" r="82.99"/><path class="fdcbc8fe-68db-457e-b341-0f0249f318b0" d="M65,112.78l-8.72,8.72a.59.59,0,0,1-1-.2L28.66,56.07a2,2,0,0,1,.41-1.65l8.31-8.3,5.74,13.94,22.33,51.08A1.89,1.89,0,0,1,65,112.78Z"/><path class="fdcbc8fe-68db-457e-b341-0f0249f318b0" d="M69.33,117.07l-8.72,8.72c-.3.3-.31.92.21,1l65.23,26.64a1.9,1.9,0,0,0,1.64-.41l8.31-8.31-14-5.74L71,116.66A1.9,1.9,0,0,0,69.33,117.07Z"/><path class="e819ce0f-3b2d-4c35-bef6-b88271b33a6e" d="M104.46,73.37l-8.72,8.72a1.93,1.93,0,0,1-1.64.41l-51-22.44L37.38,46.12A1.9,1.9,0,0,1,39,45.71l65.23,26.63A.59.59,0,0,1,104.46,73.37Z"/><path class="e819ce0f-3b2d-4c35-bef6-b88271b33a6e" d="M108.75,77.66,100,86.37A1.91,1.91,0,0,0,99.62,88l22.43,51,14,5.74a1.92,1.92,0,0,0,.41-1.64L109.77,77.86A.59.59,0,0,0,108.75,77.66Z"/><path class="ac8318ee-b3d9-4ad8-b946-9f672d5b974c" d="M121.5,56.32,112.78,65a1.89,1.89,0,0,1-1.64.41L60.17,43l-5.75-14a2,2,0,0,1,1.65-.41L121.3,55.3A.59.59,0,0,1,121.5,56.32Z"/><path class="e8f20f75-0817-4435-9d10-c475d7516df2" d="M82.09,95.74l-8.72,8.72a.59.59,0,0,1-1-.21L45.71,39a1.9,1.9,0,0,1,.41-1.64l8.3-8.31,5.75,14L82.5,94.1A1.93,1.93,0,0,1,82.09,95.74Z"/><path class="ac8318ee-b3d9-4ad8-b946-9f672d5b974c" d="M125.79,60.61l-8.72,8.72a1.9,1.9,0,0,0-.41,1.64l22.44,51L153,127.69a1.9,1.9,0,0,0,.41-1.64L126.81,60.82C126.71,60.3,126.09,60.31,125.79,60.61Z"/><path class="e8f20f75-0817-4435-9d10-c475d7516df2" d="M86.37,100l-8.71,8.72a.59.59,0,0,0,.2,1l65.23,26.64a1.92,1.92,0,0,0,1.64-.41l8.31-8.31L139.1,122,88,99.62A1.91,1.91,0,0,0,86.37,100Z"/></svg>